HIERARCHY
ROOT SpineBase
{
  OFFSET 0.000000 0.000000 0.000000
  CHANNELS 6 Xposition Yposition Zposition Zrotation Xrotation Yrotation
  JOINT SpineMid
  {
    OFFSET -0.000000 30.337910 0.000000
    CHANNELS 3 Zrotation Xrotation Yrotation
    JOINT SpineShoulder
    {
      OFFSET -0.276620 22.411245 -0.734690
      CHANNELS 3 Zrotation Xrotation Yrotation
      JOINT Neck
      {
        OFFSET -0.167379 7.368410 -0.577885
        CHANNELS 3 Zrotation Xrotation Yrotation
        JOINT Head
        {
          OFFSET 1.688084 13.994694 0.302304
          CHANNELS 3 Zrotation Xrotation Yrotation
          End Site
          {
            OFFSET 0 0 0
          }
        }
      }
      JOINT ShoulderLeft
      {
        OFFSET -17.113105 -4.512985 1.508494
        CHANNELS 3 Zrotation Xrotation Yrotation
        JOINT ElbowLeft
        {
          OFFSET -3.635150 -26.173163 1.005540
          CHANNELS 3 Zrotation Xrotation Yrotation
          JOINT WristLeft
          {
            OFFSET -2.037865 -25.958186 -7.240983
            CHANNELS 3 Zrotation Xrotation Yrotation
            JOINT HandLeft
            {
              OFFSET 0.457630 -5.022938 -0.568704
              CHANNELS 3 Zrotation Xrotation Yrotation
              JOINT HandTipLeft
              {
                OFFSET 0.426867 -5.162348 -2.672389
                CHANNELS 3 Zrotation Xrotation Yrotation
                End Site
                {
                  OFFSET 0 0 0
                }
              }
              JOINT ThumbLeft
              {
                OFFSET -3.159488 0.124596 -2.293577
                CHANNELS 3 Zrotation Xrotation Yrotation
                End Site
                {
                  OFFSET 0 0 0
                }
              }
            }
          }
        }
      }
      JOINT ShoulderRight
      {
        OFFSET 16.379437 -5.076466 -3.564229
        CHANNELS 3 Zrotation Xrotation Yrotation
        JOINT ElbowRight
        {
          OFFSET 5.232127 -25.203009 1.993165
          CHANNELS 3 Zrotation Xrotation Yrotation
          JOINT WristRight
          {
            OFFSET 5.913604 -21.603882 -4.173459
            CHANNELS 3 Zrotation Xrotation Yrotation
            JOINT HandRight
            {
              OFFSET 0.435359 -6.135135 -2.198322
              CHANNELS 3 Zrotation Xrotation Yrotation
              JOINT HandTipRight
              {
                OFFSET 0.446027 -5.186354 -0.909240
                CHANNELS 3 Zrotation Xrotation Yrotation
                End Site
                {
                  OFFSET 0 0 0
                }
              }
              JOINT ThumbRight
              {
                OFFSET -1.168644 -2.947281 -1.507951
                CHANNELS 3 Zrotation Xrotation Yrotation
                End Site
                {
                  OFFSET 0 0 0
                }
              }
            }
          }
        }
      }
    }
  }
  JOINT HipLeft
  {
    OFFSET -7.522789 0.217077 -2.749210
    CHANNELS 3 Zrotation Xrotation Yrotation
    JOINT KneeLeft
    {
      OFFSET -3.765692 -36.375349 -6.769409
      CHANNELS 3 Zrotation Xrotation Yrotation
      JOINT AnkleLeft
      {
        OFFSET -0.163798 -39.920674 5.087679
        CHANNELS 3 Zrotation Xrotation Yrotation
        JOINT FootLeft
        {
          OFFSET -1.848343 -4.423336 -13.493219
          CHANNELS 3 Zrotation Xrotation Yrotation
          End Site
          {
            OFFSET 0 0 0
          }
        }
      }
    }
  }
  JOINT HipRight
  {
    OFFSET 5.867432 0.204069 -4.594792
    CHANNELS 3 Zrotation Xrotation Yrotation
    JOINT KneeRight
    {
      OFFSET 5.801459 -33.786364 2.412318
      CHANNELS 3 Zrotation Xrotation Yrotation
      JOINT AnkleRight
      {
        OFFSET 0.171362 -37.643356 11.001105
        CHANNELS 3 Zrotation Xrotation Yrotation
        JOINT FootRight
        {
          OFFSET -2.390250 -3.874202 -14.774611
          CHANNELS 3 Zrotation Xrotation Yrotation
          End Site
          {
            OFFSET 0 0 0
          }
        }
      }
    }
  }
}
MOTION
Frames: 9
Frame Time: 0.033333
96.036595 83.204677 432.965299 0.000000 0.000000 7.847666 -0.000000 0.000000 -7.847666 -0.000000 0.000000 0.000000 -0.000000 0.000000 0.000000 0.000000 0.000000 0.000000 -0.000000 0.000000 0.000000 -0.000000 0.000000 0.000000 -0.000000 0.000000 0.000000 -0.000000 0.000000 0.000000 0.000000 0.000000 0.000000 0.000000 0.000000 0.000000 -0.000000 0.000000 0.000000 -0.000000 0.000000 0.000000 -0.000000 0.000000 0.000000 -0.000000 0.000000 0.000000 0.000000 0.000000 0.000000 0.000000 0.000000 0.000000 -0.000000 0.000000 -7.847666 -0.000000 0.000000 0.000000 -0.000000 0.000000 0.000000 0.000000 0.000000 0.000000 -0.000000 0.000000 -7.847666 -0.000000 0.000000 0.000000 -0.000000 0.000000 0.000000 0.000000 0.000000 0.000000
95.931053 83.192796 432.981359 -0.125049 -0.041780 7.972842 0.129635 0.024032 -7.972915 -0.000000 0.000000 0.000000 -0.000000 0.000000 0.000000 0.000000 0.000000 0.000000 -0.000000 0.000000 0.000000 -0.000000 0.000000 0.000000 0.500711 2.759395 0.182131 -2.194904 -6.171993 0.250624 0.000000 0.000000 0.000000 0.000000 0.000000 0.000000 -0.000000 0.000000 0.000000 -0.000000 0.000000 0.000000 -0.047737 1.629796 0.132772 0.637384 3.846485 0.223426 0.000000 0.000000 0.000000 0.000000 0.000000 0.000000 0.129635 0.024032 -7.972915 -0.000000 0.000000 0.000000 -0.000000 0.000000 0.000000 0.000000 0.000000 0.000000 0.129635 0.024032 -7.972915 -0.000000 0.000000 0.000000 0.737666 -3.542843 -0.687703 0.000000 0.000000 0.000000
95.840047 83.182727 432.995056 -0.227797 -0.075782 8.081170 0.236188 0.043006 -8.081409 -0.000000 0.000000 0.000000 -0.000000 0.000000 0.000000 0.000000 0.000000 0.000000 -0.000000 0.000000 0.000000 0.837785 -1.103563 -0.139450 0.021193 6.030700 0.450467 -4.075089 -11.169979 0.275829 0.000000 0.000000 0.000000 0.000000 0.000000 0.000000 -0.000000 0.000000 0.000000 0.045442 1.145512 0.303717 -0.084928 1.808329 -0.079344 1.150784 6.941700 0.391584 0.000000 0.000000 0.000000 0.000000 0.000000 0.000000 0.236188 0.043006 -8.081409 -0.000000 0.000000 0.000000 -0.000000 0.000000 0.000000 0.000000 0.000000 0.000000 0.236188 0.043006 -8.081409 -0.000000 0.000000 0.000000 1.392949 -6.871145 -1.289202 0.000000 0.000000 0.000000
95.763577 83.174470 433.006391 -0.308232 -0.102001 8.172680 0.319602 0.057147 -8.173114 -0.000000 0.000000 0.000000 -0.000000 0.000000 0.000000 0.000000 0.000000 0.000000 -0.000000 0.000000 0.000000 1.136038 -1.516364 -0.183642 -0.015509 8.143791 0.590441 -5.674258 -15.130640 0.173078 0.000000 0.000000 0.000000 0.000000 0.000000 0.000000 -0.000000 0.000000 0.000000 0.094547 1.561715 0.406795 -0.079581 2.402024 -0.131026 1.547335 9.318366 0.513604 0.000000 0.000000 0.000000 0.000000 0.000000 0.000000 0.319602 0.057147 -8.173114 -0.000000 0.000000 0.000000 -0.000000 0.000000 0.000000 0.000000 0.000000 0.000000 0.319602 0.057147 -8.173114 -0.000000 0.000000 0.000000 1.937124 -9.769482 -1.778571 0.000000 0.000000 0.000000
95.701643 83.168025 433.015363 -0.366344 -0.120435 8.247398 0.379832 0.066636 -8.248004 -0.000000 0.000000 0.000000 -0.000000 0.000000 0.000000 0.000000 0.000000 0.000000 0.946853 -0.060716 0.045363 0.397658 -1.765441 -0.257604 -0.044051 9.774437 0.691721 -7.004885 -18.164822 0.014563 0.000000 0.000000 0.000000 0.000000 0.000000 0.000000 -0.000000 0.000000 0.000000 0.162313 1.875290 0.477656 -0.045228 2.781730 -0.191473 1.836771 11.033096 0.597396 0.000000 0.000000 0.000000 0.000000 0.000000 0.000000 0.379832 0.066636 -8.248004 -0.000000 0.000000 0.000000 -0.000000 0.000000 0.000000 0.000000 0.000000 0.000000 0.379832 0.066636 -8.248004 -0.000000 0.000000 0.000000 2.346046 -12.031453 -2.135499 0.000000 0.000000 0.000000
95.654245 83.163393 433.021974 -0.402132 -0.131082 8.305342 0.416849 0.071618 -8.306062 -0.000000 0.000000 0.000000 -0.000000 0.000000 0.000000 0.000000 0.000000 0.000000 1.149496 -0.074923 0.055397 0.311230 -1.950899 -0.280300 -0.045800 10.978114 0.761022 -8.068147 -20.358011 -0.144640 0.000000 0.000000 0.000000 0.000000 0.000000 0.000000 -0.000000 0.000000 0.000000 0.249458 2.086812 0.516421 0.015398 2.948500 -0.259904 2.029304 12.136013 0.648760 0.000000 0.000000 0.000000 0.000000 0.000000 0.000000 0.416849 0.071618 -8.306062 -0.000000 0.000000 0.000000 -0.000000 0.000000 0.000000 0.000000 0.000000 0.000000 0.416849 0.071618 -8.306062 -0.000000 0.000000 0.000000 2.601757 -13.488336 -2.346375 0.000000 0.000000 0.000000
95.623547 83.159637 433.020251 -0.406088 -0.126491 8.315134 0.420112 0.066431 -8.315825 -0.000000 0.000000 0.000000 -0.000000 0.000000 0.000000 0.000000 0.000000 0.000000 1.453218 0.060325 0.046774 -0.063533 -2.341492 -0.229448 0.049929 12.406253 0.802319 -9.012535 -23.708686 -0.597578 0.000000 0.000000 0.000000 0.000000 0.000000 0.000000 -0.000000 0.000000 0.000000 0.320204 2.052082 0.492100 0.222198 3.334083 -0.314758 3.628191 10.235304 0.217738 0.000000 0.000000 0.000000 0.000000 0.000000 0.000000 0.420112 0.066431 -8.315825 -0.000000 0.000000 0.000000 -0.000000 0.000000 0.000000 0.000000 0.000000 0.000000 0.420112 0.066431 -8.315825 -0.000000 0.000000 0.000000 2.905968 -15.253564 -2.592850 0.000000 0.000000 0.000000
95.610199 83.160836 433.025445 -0.388348 -0.116035 8.336828 0.401069 0.058499 -8.337426 -0.000000 0.000000 0.000000 -0.000000 0.000000 0.000000 0.000000 0.000000 0.000000 1.557502 -0.100358 0.075283 -0.267012 -2.188689 -0.231077 0.523016 13.550763 0.767388 -10.405107 -23.733792 -0.506896 0.000000 0.000000 0.000000 0.000000 0.000000 0.000000 -0.067951 0.862944 0.174413 0.549091 1.209587 0.298508 -0.098470 2.603372 -0.283101 3.966728 9.720416 0.072534 0.000000 0.000000 0.000000 0.000000 0.000000 0.000000 0.401069 0.058499 -8.337426 -0.000000 0.000000 0.000000 -0.000000 0.000000 0.000000 0.000000 0.000000 0.000000 0.401069 0.058499 -8.337426 -0.000000 0.000000 0.000000 2.899986 -15.258903 -2.539810 0.000000 0.000000 0.000000
95.616068 83.164819 433.034805 -0.334080 -0.106707 8.340393 0.346025 0.057117 -8.340877 -0.000000 0.000000 0.000000 -0.000000 0.000000 0.000000 0.000000 0.000000 0.000000 1.674159 -0.237129 0.100920 -0.580286 -1.639489 -0.239856 0.231122 12.804374 0.842506 -9.091105 -22.082971 -0.365361 0.000000 0.000000 0.000000 0.000000 0.000000 0.000000 -0.059096 1.062181 0.216570 0.650629 0.889466 0.204707 0.323765 1.466925 -0.504767 2.566844 9.988939 0.390347 0.000000 0.000000 0.000000 0.000000 0.000000 0.000000 0.346025 0.057117 -8.340877 -0.000000 0.000000 0.000000 -0.000000 0.000000 0.000000 0.000000 0.000000 0.000000 0.346025 0.057117 -8.340877 -0.000000 0.000000 0.000000 2.585680 -13.497373 -2.225282 0.000000 0.000000 0.000000
